:SAMPLES-PER-SECOND 30
:FULLY-SPECIFIED
:DEGREES
1249
root  -44.4478 41.4205 -3.52691 -147.373 -88.5332 142.221
RightUpLeg  5.62416 -8.92811 -6.48042
RightLeg  5.55857 -8.36299 2.9522
RightFoot  -3.66212 -0.0816982 0.83142
RightToes  5.82063e-011 0 -3.6325e-017
Spine  3.9268 0.485831 -1.3686
Spine1  7.2659 0.389204 0.953262
HEad  -22.993 3.08246 -0.240778
LeftShoulder1  0.916161 -4.36505 -3.62213
LeftArm  -21.8891 15.0099 -4.87109
LeftForeArm  19.9898 -3.83624 0.894732
LeftHand  -0.244104 0.0205437 5.32207
RightShoulder  0.169682 -1.99172 3.1765
RightArm  -21.2713 -5.76376 1.02721
RightForeArm  -2.74608 3.91458 2.67067
RightHand  -4.58744 12.5206 -29.4225
LeftUpLeg  7.06767 5.24831 3.47774
LeftLeg  1.95343 11.6193 -3.18189
LeftFoot  -2.42158 0.0547815 -0.53044
LeftToes  1.45487e-011 -6.19069e-011 1.65092e-011
1250
root  -44.4093 41.4171 -3.52188 -143.397 -88.6436 138.222
RightUpLeg  5.55904 -8.95471 -6.50237
RightLeg  5.66156 -8.47203 2.94577
RightFoot  -3.66855 -0.0801103 0.818316
RightToes  5.82063e-011 0 -3.6325e-017
Spine  4.02723 0.463293 -1.43954
Spine1  7.26783 0.338184 1.05326
HEad  -22.8058 2.94549 -0.287694
LeftShoulder1  0.939257 -4.50341 -3.72177
LeftArm  -21.6979 14.8281 -4.79769
LeftForeArm  19.6898 -3.72677 0.807911
LeftHand  -0.244104 0.0205437 5.32207
RightShoulder  0.186957 -1.85025 3.27424
RightArm  -21.1837 -5.77888 0.969014
RightForeArm  -2.49448 3.9203 2.67319
RightHand  -4.57803 12.4979 -29.4002
LeftUpLeg  6.96104 5.27209 3.48521
LeftLeg  2.05945 11.4518 -3.20333
LeftFoot  -2.41522 0.0535763 -0.511709
LeftToes  1.45487e-011 -6.19069e-011 1.65092e-011
1251
root  -44.3601 41.4129 -3.52152 -140.469 -88.6849 135.227
RightUpLeg  5.48736 -8.97478 -6.53509
RightLeg  5.82089 -8.51181 2.92613
RightFoot  -3.69156 -0.0779765 0.796701
RightToes  5.82063e-011 0 -3.6325e-017
Spine  4.29458 0.49062 -1.52815
Spine1  7.09602 0.341618 1.12792
HEad  -22.6592 2.78217 -0.368061
LeftShoulder1  0.958975 -4.65474 -3.75056
LeftArm  -21.5455 14.6675 -4.82678
LeftForeArm  19.2197 -3.60229 0.72764
LeftHand  -0.244104 0.0205437 5.32207
RightShoulder  0.212104 -1.63959 3.35518
RightArm  -21.009 -5.94516 0.879056
RightForeArm  -2.24121 3.99045 2.69575
RightHand  -4.45958 12.2008 -29.1387
LeftUpLeg  6.89577 5.26489 3.46058
LeftLeg  2.15738 11.3881 -3.18762
LeftFoot  -2.39059 0.0533733 -0.508554
LeftToes  1.45487e-011 -6.19069e-011 1.65092e-011
1252
root  -44.3033 41.4093 -3.52418 -139.856 -88.6586 134.59
RightUpLeg  5.35216 -8.99932 -6.56673
RightLeg  5.96094 -8.4723 2.92997
RightFoot  -3.69386 -0.0754091 0.768233
RightToes  5.82063e-011 0 -3.6325e-017
Spine  4.58764 0.541617 -1.64223
Spine1  6.80827 0.374018 1.18306
HEad  -22.5767 2.71119 -0.403324
LeftShoulder1  0.959968 -4.74126 -3.62579
LeftArm  -21.5817 14.5676 -4.99455
LeftForeArm  19.0115 -3.47621 0.732955
LeftHand  -0.244104 0.0205437 5.32207
RightShoulder  0.238438 -1.43773 3.54113
RightArm  -20.8538 -5.99863 0.700232
RightForeArm  -2.039 4.00935 2.71844
RightHand  -4.39123 12.0396 -28.9677
LeftUpLeg  6.79566 5.27663 3.44498
LeftLeg  2.22772 11.3897 -3.20232
LeftFoot  -2.35833 0.0520777 -0.48842
LeftToes  1.45487e-011 -6.19069e-011 1.65092e-011
1253
root  -44.2462 41.4071 -3.52777 -140.797 -88.6371 135.547
RightUpLeg  5.2213 -9.02247 -6.56507
RightLeg  6.00191 -8.42771 2.96962
RightFoot  -3.65177 -0.0715633 0.719711
RightToes  5.82063e-011 0 -3.6325e-017
Spine  4.80043 0.585504 -1.72109
Spine1  6.57246 0.403334 1.23257
HEad  -22.5572 2.69948 -0.427368
LeftShoulder1  0.958656 -4.81542 -3.49164
LeftArm  -21.6875 14.5194 -5.14717
LeftForeArm  19.0981 -3.35176 0.786112
LeftHand  -0.244104 0.0205437 5.32207
RightShoulder  0.254089 -1.3424 3.7869
RightArm  -20.7513 -5.84681 0.472356
RightForeArm  -1.96531 3.94611 2.74281
RightHand  -4.4505 12.2009 -29.0824
LeftUpLeg  6.67062 5.33606 3.48851
LeftLeg  2.27947 11.3579 -3.26208
LeftFoot  -2.339 0.0498665 -0.454055
LeftToes  1.45487e-011 -6.19069e-011 1.65092e-011
